{
  "accessors": [
    {
      "bufferView": 2,
      "componentType": 5126,
      "count": 488,
      "max": [
        1.2521588802337646,
        1.5999852418899536,
        1.0
      ],
      "min": [
        -1.2521588802337646,
        -1.5999852418899536,
        -2.3330206871032715
      ],
      "type": "VEC3"
    },
    {
      "bufferView": 2,
      "byteOffset": 5856,
      "componentType": 5126,
      "count": 488,
      "max": [
        1.0,
        1.0,
        1.0
      ],
      "min": [
        -1.0,
        -1.0,
        -1.0
      ],
      "type": "VEC3"
    },
    {
      "bufferView": 1,
      "componentType": 5126,
      "count": 488,
      "max": [
        0.875,
        1.0
      ],
      "min": [
        0.125,
        0.0
      ],
      "type": "VEC2"
    },
    {
      "bufferView": 0,
      "componentType": 5125,
      "count": 840,
      "type": "SCALAR"
    },
    {
      "bufferView": 2,
      "byteOffset": 11712,
      "componentType": 5126,
      "count": 124,
      "max": [
        0.928571343421936,
        1.0416666269302368,
        0.9371428489685059
      ],
      "min": [
        -0.928571343421936,
        -1.0416666269302368,
        -0.9371428489685059
      ],
      "type": "VEC3"
    },
    {
      "bufferView": 2,
      "byteOffset": 13200,
      "componentType": 5126,
      "count": 124,
      "max": [
        0.0,
        1.0,
        -3.832905903777828e-08
      ],
      "min": [
        0.0,
        -1.0,
        -4.804627096177683e-08
      ],
      "type": "VEC3"
    },
    {
      "bufferView": 1,
      "byteOffset": 3904,
      "componentType": 5126,
      "count": 124,
      "max": [
        0.8921215534210205,
        0.9969385862350464
      ],
      "min": [
        0.10787859559059143,
        0.007586002349853516
      ],
      "type": "VEC2"
    },
    {
      "bufferView": 0,
      "byteOffset": 3360,
      "componentType": 5125,
      "count": 360,
      "type": "SCALAR"
    },
    {
      "bufferView": 2,
      "byteOffset": 14688,
      "componentType": 5126,
      "count": 21789,
      "max": [
        1.0,
        1.0416666269302368,
        1.0
      ],
      "min": [
        -1.0,
        -1.0416666269302368,
        -1.0
      ],
      "type": "VEC3"
    },
    {
      "bufferView": 2,
      "byteOffset": 276156,
      "componentType": 5126,
      "count": 21789,
      "max": [
        1.0,
        1.0,
        1.0
      ],
      "min": [
        -1.0,
        -1.0,
        -1.0
      ],
      "type": "VEC3"
    },
    {
      "bufferView": 1,
      "byteOffset": 4896,
      "componentType": 5126,
      "count": 21789,
      "max": [
        1.000000238418579,
        1.0000001192092896
      ],
      "min": [
        0.0,
        0.0
      ],
      "type": "VEC2"
    },
    {
      "bufferView": 0,
      "byteOffset": 4800,
      "componentType": 5125,
      "count": 34719,
      "type": "SCALAR"
    },
    {
      "bufferView": 2,
      "byteOffset": 537624,
      "componentType": 5126,
      "count": 512,
      "max": [
        0.9116557240486145,
        0.5416666269302368,
        1.0
      ],
      "min": [
        -0.999065101146698,
        -0.5416666269302368,
        -1.0
      ],
      "type": "VEC3"
    },
    {
      "bufferView": 2,
      "byteOffset": 543768,
      "componentType": 5126,
      "count": 512,
      "max": [
        1.0,
        1.0,
        1.0
      ],
      "min": [
        -1.0,
        -1.0,
        -1.0
      ],
      "type": "VEC3"
    },
    {
      "bufferView": 1,
      "byteOffset": 179208,
      "componentType": 5126,
      "count": 512,
      "max": [
        0.875,
        1.0
      ],
      "min": [
        0.125,
        0.0
      ],
      "type": "VEC2"
    },
    {
      "bufferView": 0,
      "byteOffset": 143676,
      "componentType": 5125,
      "count": 1074,
      "type": "SCALAR"
    },
    {
      "bufferView": 2,
      "byteOffset": 549912,
      "componentType": 5126,
      "count": 18324,
      "max": [
        0.9999998807907104,
        0.28794220089912415,
        -0.41162246465682983
      ],
      "min": [
        0.8823711276054382,
        -0.2879422903060913,
        -0.5712347030639648
      ],
      "type": "VEC3"
    },
    {
      "bufferView": 2,
      "byteOffset": 769800,
      "componentType": 5126,
      "count": 18324,
      "max": [
        1.0,
        0.9940038323402405,
        0.9997568726539612
      ],
      "min": [
        -0.999380886554718,
        -0.9940029978752136,
        -0.9997569918632507
      ],
      "type": "VEC3"
    },
    {
      "bufferView": 1,
      "byteOffset": 183304,
      "componentType": 5126,
      "count": 18324,
      "max": [
        1.000000238418579,
        1.0000001192092896
      ],
      "min": [
        0.0,
        0.0
      ],
      "type": "VEC2"
    },
    {
      "bufferView": 0,
      "byteOffset": 147972,
      "componentType": 5125,
      "count": 27942,
      "type": "SCALAR"
    },
    {
      "bufferView": 3,
      "componentType": 5126,
      "count": 42,
      "max": [
        3.3333332538604736
      ],
      "min": [
        0.0
      ],
      "type": "SCALAR"
    },
    {
      "bufferView": 4,
      "componentType": 5126,
      "count": 42,
      "max": [
        370.0,
        2500.0,
        0.0
      ],
      "min": [
        370.0,
        1500.0,
        0.0
      ],
      "type": "VEC3"
    },
    {
      "bufferView": 3,
      "byteOffset": 168,
      "componentType": 5126,
      "count": 41,
      "max": [
        3.299999952316284
      ],
      "min": [
        0.0
      ],
      "type": "SCALAR"
    },
    {
      "bufferView": 4,
      "byteOffset": 504,
      "componentType": 5126,
      "count": 41,
      "max": [
        0.0,
        -340.0,
        0.0
      ],
      "min": [
        0.0,
        -680.0,
        0.0
      ],
      "type": "VEC3"
    }
  ],
  "animations": [
    {
      "channels": [
        {
          "sampler": 0,
          "target": {
            "node": 4,
            "path": "translation"
          }
        }
      ],
      "name": "Cartridge|CartridgeAction",
      "samplers": [
        {
          "input": 20,
          "interpolation": "LINEAR",
          "output": 21
        }
      ]
    },
    {
      "channels": [
        {
          "sampler": 0,
          "target": {
            "node": 6,
            "path": "translation"
          }
        }
      ],
      "name": "Case|CaseAction",
      "samplers": [
        {
          "input": 22,
          "interpolation": "LINEAR",
          "output": 23
        }
      ]
    }
  ],
  "asset": {
    "extras": {
      "author": "C01L3D (https://sketchfab.com/c01l3d)",
      "license": "CC-BY-4.0 (http://creativecommons.org/licenses/by/4.0/)",
      "source": "https://sketchfab.com/3d-models/smoant-charon-baby-8cc0440ce9414881ac9dd2b2280d415a",
      "title": "Smoant Charon Baby"
    },
    "generator": "Sketchfab-14.62.0",
    "version": "2.0"
  },
  "bufferViews": [
    {
      "buffer": 0,
      "byteLength": 259740,
      "name": "floatBufferViews",
      "target": 34963
    },
    {
      "buffer": 0,
      "byteLength": 329896,
      "byteOffset": 259740,
      "byteStride": 8,
      "name": "floatBufferViews",
      "target": 34962
    },
    {
      "buffer": 0,
      "byteLength": 989688,
      "byteOffset": 589636,
      "byteStride": 12,
      "name": "floatBufferViews",
      "target": 34962
    },
    {
      "buffer": 0,
      "byteLength": 332,
      "byteOffset": 1579324,
      "name": "floatBufferViews"
    },
    {
      "buffer": 0,
      "byteLength": 996,
      "byteOffset": 1579656,
      "byteStride": 12,
      "name": "floatBufferViews"
    }
  ],
  "buffers": [
    {
      "byteLength": 1580652,
      "uri": "scene.bin"
    }
  ],
  "extensionsUsed": [
    "KHR_materials_specular",
    "KHR_materials_emissive_strength"
  ],
  "images": [
    {
      "uri": "textures/LabelMat_baseColor.png"
    }
  ],
  "materials": [
    {
      "doubleSided": true,
      "extensions": {
        "KHR_materials_specular": {
          "specularColorFactor": [
            1.0,
            1.0,
            1.0
          ],
          "specularFactor": 0.6
        }
      },
      "name": "CartridgeMat",
      "pbrMetallicRoughness": {
        "baseColorFactor": [
          0.0,
          0.0,
          0.0,
          1.0
        ],
        "metallicFactor": 0.9,
        "roughnessFactor": 0.1
      }
    },
    {
      "doubleSided": true,
      "name": "LabelMat",
      "pbrMetallicRoughness": {
        "baseColorTexture": {
          "index": 0
        },
        "metallicFactor": 0.0,
        "roughnessFactor": 0.7
      }
    },
    {
      "doubleSided": true,
      "name": "PodMat",
      "pbrMetallicRoughness": {
        "baseColorFactor": [
          0.422411,
          0.422411,
          0.422411,
          1.0
        ],
        "roughnessFactor": 0.2
      }
    },
    {
      "doubleSided": true,
      "emissiveFactor": [
        0.0,
        0.0017556099999999606,
        1.0
      ],
      "extensions": {
        "KHR_materials_emissive_strength": {
          "emissiveStrength": 5.0
        },
        "KHR_materials_specular": {
          "specularColorFactor": [
            1.0,
            1.0,
            1.0
          ],
          "specularFactor": 1.0
        }
      },
      "name": "IndicatorMat",
      "pbrMetallicRoughness": {
        "baseColorFactor": [
          0.8,
          0.8,
          0.8,
          1.0
        ]
      }
    }
  ],
  "meshes": [
    {
      "name": "Cartridge_CartridgeMat_0",
      "primitives": [
        {
          "attributes": {
            "NORMAL": 1,
            "POSITION": 0,
            "TEXCOORD_0": 2
          },
          "indices": 3,
          "material": 0,
          "mode": 4
        }
      ]
    },
    {
      "name": "Case_LabelMat_0",
      "primitives": [
        {
          "attributes": {
            "NORMAL": 5,
            "POSITION": 4,
            "TEXCOORD_0": 6
          },
          "indices": 7,
          "material": 1,
          "mode": 4
        }
      ]
    },
    {
      "name": "Case_PodMat_0",
      "primitives": [
        {
          "attributes": {
            "NORMAL": 9,
            "POSITION": 8,
            "TEXCOORD_0": 10
          },
          "indices": 11,
          "material": 2,
          "mode": 4
        }
      ]
    },
    {
      "name": "Case_CartridgeMat_0",
      "primitives": [
        {
          "attributes": {
            "NORMAL": 13,
            "POSITION": 12,
            "TEXCOORD_0": 14
          },
          "indices": 15,
          "material": 0,
          "mode": 4
        }
      ]
    },
    {
      "name": "Case_IndicatorMat_0",
      "primitives": [
        {
          "attributes": {
            "NORMAL": 17,
            "POSITION": 16,
            "TEXCOORD_0": 18
          },
          "indices": 19,
          "material": 3,
          "mode": 4
        }
      ]
    }
  ],
  "nodes": [
    {
      "children": [
        1
      ],
      "matrix": [
        1.0,
        0.0,
        0.0,
        0.0,
        0.0,
        2.220446049250313e-16,
        -1.0,
        0.0,
        0.0,
        1.0,
        2.220446049250313e-16,
        0.0,
        0.0,
        0.0,
        0.0,
        1.0
      ],
      "name": "Sketchfab_model"
    },
    {
      "children": [
        2
      ],
      "matrix": [
        0.009999999776482582,
        0.0,
        0.0,
        0.0,
        0.0,
        0.0,
        0.009999999776482582,
        0.0,
        0.0,
        -0.009999999776482582,
        0.0,
        0.0,
        0.0,
        0.0,
        0.0,
        1.0
      ],
      "name": "charonbaby.fbx"
    },
    {
      "children": [
        3
      ],
      "name": "Object_2"
    },
    {
      "children": [
        4,
        6
      ],
      "name": "RootNode"
    },
    {
      "children": [
        5
      ],
      "name": "Cartridge",
      "rotation": [
        -0.7071068286895752,
        0.0,
        0.0,
        0.7071067094802856
      ],
      "scale": [
        440.0,
        200.0,
        570.0
      ],
      "translation": [
        370.0,
        1500.0,
        0.0
      ]
    },
    {
      "mesh": 0,
      "name": "Cartridge_CartridgeMat_0"
    },
    {
      "children": [
        7,
        8,
        9,
        10
      ],
      "name": "Case",
      "rotation": [
        -0.7071068286895752,
        0.0,
        0.0,
        0.7071067094802856
      ],
      "scale": [
        1260.0,
        480.0000305175781,
        1750.0
      ],
      "translation": [
        0.0,
        -340.0,
        0.0
      ]
    },
    {
      "mesh": 1,
      "name": "Case_LabelMat_0"
    },
    {
      "mesh": 2,
      "name": "Case_PodMat_0"
    },
    {
      "mesh": 3,
      "name": "Case_CartridgeMat_0"
    },
    {
      "mesh": 4,
      "name": "Case_IndicatorMat_0"
    }
  ],
  "samplers": [
    {
      "magFilter": 9729,
      "minFilter": 9987,
      "wrapS": 10497,
      "wrapT": 10497
    }
  ],
  "scene": 0,
  "scenes": [
    {
      "name": "Sketchfab_Scene",
      "nodes": [
        0
      ]
    }
  ],
  "textures": [
    {
      "sampler": 0,
      "source": 0
    }
  ]
}
